HIERARCHY
ROOT Hips
{
	OFFSET -3.958830 18.904000 13.208200
	CHANNELS 6 Xposition Yposition Zposition Zrotation Yrotation Xrotation 
	JOINT LHipJoint
	{
		OFFSET 0.000000 0.000000 0.000000
		CHANNELS 3 Zrotation Yrotation Xrotation
		JOINT LeftUpLeg
		{
			OFFSET 1.800000 -1.400000 0.085000
			CHANNELS 3 Zrotation Yrotation Xrotation
			JOINT LeftLeg
			{
				OFFSET 2.215000 -6.000000 0.000000
				CHANNELS 3 Zrotation Yrotation Xrotation
				JOINT LeftFoot
				{
					OFFSET 2.500000 -6.900000 0.000000
					CHANNELS 3 Zrotation Yrotation Xrotation
					JOINT LeftToeBase
					{
						OFFSET 0.200000 -0.500000 1.950000
						CHANNELS 3 Zrotation Yrotation Xrotation
						End Site
						{
							OFFSET 0.000000 0.000000 0.000000
						}
					}
				}
			}
		}
	}
	JOINT RHipJoint
	{
		OFFSET 0.000000 0.000000 0.000000
		CHANNELS 3 Zrotation Yrotation Xrotation
		JOINT RightUpLeg
		{
			OFFSET -1.800000 -1.400000 0.085000
			CHANNELS 3 Zrotation Yrotation Xrotation
			JOINT RightLeg
			{
				OFFSET -2.215000 -6.000000 0.000000
				CHANNELS 3 Zrotation Yrotation Xrotation
				JOINT RightFoot
				{
					OFFSET -2.500000 -6.900000 0.000000
					CHANNELS 3 Zrotation Yrotation Xrotation
					JOINT RightToeBase
					{
						OFFSET -0.200000 -0.500000 1.950000
						CHANNELS 3 Zrotation Yrotation Xrotation
						End Site
						{
							OFFSET 0.000000 0.000000 0.000000
						}
					}
				}
			}
		}
	}
	JOINT LowerBack
	{
		OFFSET 0.000000 0.000000 0.000000
		CHANNELS 3 Zrotation Yrotation Xrotation
		JOINT Spine
		{
			OFFSET -0.087000 1.940000 -0.288900
			CHANNELS 3 Zrotation Yrotation Xrotation
			JOINT Spine1
			{
				OFFSET 0.000000 1.950000 0.060000
				CHANNELS 3 Zrotation Yrotation Xrotation
				JOINT Neck
				{
					OFFSET 0.000000 0.000000 0.000000
					CHANNELS 3 Zrotation Yrotation Xrotation
					JOINT Neck1
					{
						OFFSET 0.000000 1.600000 0.340000
						CHANNELS 3 Zrotation Yrotation Xrotation
						JOINT Head
						{
							OFFSET 0.000000 1.667000 -0.240000
							CHANNELS 3 Zrotation Yrotation Xrotation
							End Site
							{
								OFFSET 0.000000 0.000000 0.000000
							}
						}
					}
				}
				JOINT LeftShoulder
				{
					OFFSET 0.000000 0.000000 0.000000
					CHANNELS 3 Zrotation Yrotation Xrotation
					JOINT LeftArm
					{
						OFFSET 2.700000 1.550000 -0.730000
						CHANNELS 3 Zrotation Yrotation Xrotation
						JOINT LeftForeArm
						{
							OFFSET 5.450000 0.000000 0.000000
							CHANNELS 3 Zrotation Yrotation Xrotation
							JOINT LeftHand
							{
								OFFSET 3.450000 0.000000 0.000000
								CHANNELS 3 Zrotation Yrotation Xrotation
								JOINT LeftHandIndex1
								{
									OFFSET 0.750000 0.000000 0.000000
									CHANNELS 3 Zrotation Yrotation Xrotation
									End Site
									{
										OFFSET 0.000000 0.000000 0.000000
									}
								}
							}
						}
					}
				}
				JOINT RightShoulder
				{
					OFFSET 0.000000 0.000000 0.000000
					CHANNELS 3 Zrotation Yrotation Xrotation
					JOINT RightArm
					{
						OFFSET -2.700000 1.550000 -0.730000
						CHANNELS 3 Zrotation Yrotation Xrotation
						JOINT RightForeArm
						{
							OFFSET -5.450000 0.000000 0.000000
							CHANNELS 3 Zrotation Yrotation Xrotation
							JOINT RightHand
							{
								OFFSET -3.450000 0.000000 0.000000
								CHANNELS 3 Zrotation Yrotation Xrotation
								JOINT RightHandIndex1
								{
									OFFSET -0.750000 0.000000 0.000000
									CHANNELS 3 Zrotation Yrotation Xrotation
									End Site
									{
										OFFSET 0.000000 0.000000 0.000000
									}
								}
							}
						}
					}
				}
			}
		}
	}
}
MOTION
Frames: 10
Frame Time: 0.016667
-0.440520 16.891030 -1.250520 -4.496326 -28.960907 5.701190 -14.872832 13.552690 2.571177 12.760408 -1.470279 -13.274948 -7.586174 8.243472 21.951300 -0.035165 5.538292 2.801962 0.298650 -0.207730 0.372630 18.461616 -10.913824 2.900152 -4.518344 1.823279 -15.185690 13.397595 -7.075518 14.980762 -0.275280 -3.889396 3.201559 -0.180620 0.340660 0.486920 -4.088710 -1.665516 -6.892607 13.610711 -2.547550 4.227425 -5.488839 -2.473379 4.540750 3.292136 -2.937764 -8.293107 -7.529311 7.042800 39.987532 -7.740640 9.483180 3.570990 -11.918626 -0.012656 2.634441 -59.117139 -3.026065 -4.364427 -18.760199 -18.369603 0.698521 -3.967598 3.065865 0.385590 0.338210 -0.040180 0.245220 5.138610 1.440230 3.514188 66.282818 4.247237 -6.992280 19.274816 16.596659 0.807575 2.278795 -1.543496 -0.068280 -0.066270 -0.102500 -0.188860 
-0.439840 16.891940 -1.250600 -4.500662 -28.958973 5.677878 -14.872105 13.555910 2.572151 12.763127 -1.468145 -13.258863 -7.584181 8.244134 21.955454 -0.034581 5.537307 2.800915 0.299280 -0.206720 0.373790 18.461592 -10.913754 2.900223 -4.520897 1.817114 -15.162868 13.392709 -7.075431 14.975890 -0.276527 -3.887430 3.201930 -0.181080 0.337550 0.486190 -4.089365 -1.671706 -6.895289 13.636400 -2.555807 4.240330 -5.504877 -2.475353 4.583426 3.302609 -2.955974 -8.349211 -7.594892 7.060168 40.117957 -7.762890 9.491690 3.558870 -11.828074 -0.100388 2.678548 -59.158722 -3.051364 -4.363771 -18.799823 -18.373986 0.700375 -3.964421 3.065789 0.387400 0.335820 -0.037990 0.244180 5.027092 1.545271 3.564567 66.319454 4.263222 -7.012399 19.336188 16.631968 0.816672 2.278223 -1.543727 -0.067340 -0.066650 -0.102800 -0.189450 
-0.438730 16.893510 -1.250730 -4.496551 -28.953969 5.630961 -14.871653 13.562730 2.573248 12.759164 -1.463664 -13.224877 -7.570978 8.241385 21.958722 -0.034021 5.534428 2.799725 0.299390 -0.206170 0.375090 18.460719 -10.913350 2.900010 -4.532874 1.805093 -15.122350 13.384729 -7.075726 14.967501 -0.277850 -3.884629 3.202555 -0.182170 0.332700 0.484510 -4.087692 -1.684995 -6.899365 13.653822 -2.566402 4.256111 -5.515453 -2.476605 4.670223 3.316508 -2.986997 -8.455169 -7.711875 7.090588 40.347762 -7.794760 9.504070 3.568290 -11.650340 -0.269834 2.763937 -59.242951 -3.103807 -4.360210 -18.868671 -18.378925 0.702866 -3.959191 3.065735 0.390270 0.332070 -0.035060 0.242120 4.824928 1.746472 3.660033 66.370643 4.288638 -7.051260 19.468529 16.704626 0.835533 2.276988 -1.544529 -0.066390 -0.067280 -0.102830 -0.190570 
-0.437040 16.895470 -1.250690 -4.487070 -28.953291 5.564742 -14.871446 13.571862 2.576022 12.758201 -1.457895 -13.175621 -7.574171 8.245483 21.964974 -0.032666 5.535676 2.796880 0.300530 -0.205810 0.377290 18.459214 -10.912289 2.898531 -4.551372 1.790315 -15.071781 13.359898 -7.076143 14.970471 -0.280180 -3.881021 3.203250 -0.183930 0.327160 0.484170 -4.084472 -1.704719 -6.904716 13.672010 -2.580890 4.277638 -5.526295 -2.477783 4.789904 3.331357 -3.040457 -8.601640 -7.894918 7.142533 40.649997 -7.828480 9.509300 3.581030 -11.406986 -0.499900 2.881136 -59.354615 -3.169656 -4.357875 -18.966847 -18.391014 0.704935 -3.952265 3.066733 0.394930 0.327380 -0.030670 0.240600 4.557124 2.028772 3.791750 66.408654 4.320763 -7.105081 19.673809 16.811363 0.865288 2.274624 -1.546479 -0.064770 -0.068350 -0.103070 -0.191800 
-0.434840 16.897810 -1.250620 -4.476110 -28.952723 5.485275 -14.870907 13.581918 2.579547 12.759380 -1.450646 -13.116586 -7.585392 8.252740 21.971579 -0.030535 5.537317 2.793005 0.302290 -0.204270 0.379680 18.457789 -10.911289 2.896467 -4.575910 1.772281 -15.011750 13.327871 -7.076047 14.974468 -0.283367 -3.876711 3.203560 -0.185730 0.320220 0.484010 -4.081912 -1.726729 -6.910695 13.701919 -2.599762 4.304111 -5.562150 -2.478402 4.937196 3.352457 -3.107143 -8.775483 -8.117696 7.211514 40.994626 -7.866070 9.516980 3.576310 -11.137052 -0.779795 3.020611 -59.438016 -3.236581 -4.363809 -19.114769 -18.433916 0.714906 -3.943611 3.069263 0.400010 0.321550 -0.025120 0.238740 4.249838 2.370996 3.948395 66.434911 4.357550 -7.167664 19.960501 16.936641 0.904406 2.271818 -1.549544 -0.062030 -0.069930 -0.103300 -0.192870 
-0.431960 16.900090 -1.250360 -4.474024 -28.956875 5.403974 -14.869753 13.592064 2.583969 12.773819 -1.442137 -13.050069 -7.611709 8.264983 21.972954 -0.027691 5.541425 2.788193 0.304990 -0.202240 0.382670 18.456926 -10.909873 2.893904 -4.597785 1.754849 -14.950392 13.287818 -7.075843 14.987259 -0.287349 -3.871832 3.203712 -0.187540 0.312900 0.484650 -4.081558 -1.750222 -6.916922 13.760509 -2.624384 4.332055 -5.622107 -2.479672 5.107215 3.374813 -3.194894 -8.975778 -8.393768 7.299822 41.357070 -7.894700 9.513460 3.561610 -10.831378 -1.102951 3.181385 -59.512179 -3.305512 -4.375377 -19.309179 -18.494544 0.729576 -3.933517 3.072958 0.405980 0.315030 -0.018550 0.237370 3.902605 2.771852 4.128575 66.448308 4.399931 -7.240014 20.314708 17.083955 0.951796 2.268411 -1.553918 -0.058740 -0.071660 -0.103970 -0.193720 
-0.428530 16.902410 -1.249940 -4.473250 -28.959858 5.321085 -14.868796 13.602664 2.589398 12.794552 -1.433905 -12.980758 -7.650483 8.281416 21.971121 -0.024992 5.547511 2.782965 0.308540 -0.200090 0.386950 18.455861 -10.907537 2.890715 -4.620152 1.738283 -14.891914 13.241807 -7.076055 15.008290 -0.291392 -3.866409 3.204580 -0.189530 0.305520 0.485240 -4.080696 -1.776721 -6.923621 13.823914 -2.654504 4.362980 -5.693630 -2.482879 5.290405 3.400902 -3.294284 -9.193054 -8.701862 7.401271 41.722881 -7.927660 9.510180 3.536600 -10.513015 -1.456014 3.354484 -59.568492 -3.372220 -4.392930 -19.533290 -18.571769 0.747602 -3.922601 3.076481 0.412840 0.308330 -0.011920 0.235990 3.535994 3.211452 4.324107 66.435221 4.440712 -7.321213 20.739682 17.254353 1.007728 2.264083 -1.559057 -0.055580 -0.073090 -0.105080 -0.195030 
-0.424800 16.904620 -1.249310 -4.464739 -28.956096 5.234422 -14.868222 13.613801 2.595358 12.809120 -1.426674 -12.917070 -7.691027 8.298882 21.974236 -0.021792 5.553797 2.777822 0.311350 -0.198250 0.389610 18.454416 -10.904879 2.886813 -4.646979 1.720013 -14.834247 13.187492 -7.074437 15.030248 -0.294970 -3.860522 3.205971 -0.191590 0.298590 0.485400 -4.078561 -1.805484 -6.930163 13.875867 -2.688312 4.391184 -5.777017 -2.486811 5.485095 3.428822 -3.398779 -9.425677 -9.026534 7.510741 42.078549 -7.947960 9.500840 3.532420 -10.183885 -1.836013 3.540254 -59.603703 -3.430650 -4.422185 -19.779185 -18.673659 0.770158 -3.911214 3.080810 0.419210 0.301800 -0.005820 0.234970 3.156571 3.682424 4.533672 66.407539 4.471063 -7.418699 21.214708 17.457446 1.070488 2.258939 -1.565261 -0.052530 -0.074370 -0.105790 -0.195960 
-0.420840 16.906740 -1.248510 -4.455811 -28.954055 5.144216 -14.867583 13.625433 2.601824 12.825014 -1.419701 -12.856077 -7.733138 8.319995 21.989588 -0.018431 5.561795 2.771836 0.313460 -0.196790 0.392160 18.452948 -10.902525 2.882492 -4.669404 1.700435 -14.771940 13.118336 -7.069771 15.054627 -0.298468 -3.852814 3.207628 -0.194060 0.291750 0.485100 -4.076303 -1.835037 -6.937069 13.927503 -2.720672 4.423507 -5.877805 -2.485128 5.686656 3.461655 -3.502869 -9.672372 -9.358241 7.629874 42.441948 -7.955390 9.491000 3.510770 -9.854133 -2.242884 3.736396 -59.599510 -3.480768 -4.461457 -20.053102 -18.803673 0.798257 -3.899329 3.084549 0.426040 0.294750 0.000600 0.233280 2.767474 4.180541 4.754784 66.367237 4.492692 -7.529271 21.729404 17.678179 1.138340 2.253844 -1.570812 -0.049750 -0.074870 -0.105850 -0.196780 
-0.416600 16.908770 -1.247420 -4.453990 -28.948034 5.057376 -14.867035 13.637639 2.608729 12.844585 -1.414454 -12.804204 -7.774307 8.343659 22.019529 -0.015163 5.572056 2.764971 0.314980 -0.196010 0.394480 18.451443 -10.899472 2.878060 -4.683009 1.681404 -14.708680 13.043363 -7.064388 15.082334 -0.302145 -3.844068 3.209364 -0.196880 0.285150 0.484870 -4.073802 -1.866948 -6.944383 13.988003 -2.753513 4.460618 -5.980655 -2.481083 5.885350 3.497603 -3.613198 -9.926111 -9.711637 7.750486 42.796208 -7.971350 9.475180 3.471800 -9.538130 -2.659997 3.932893 -59.573062 -3.527670 -4.504215 -20.323025 -18.941040 0.825682 -3.887487 3.087490 0.433420 0.287450 0.007390 0.231480 2.386629 4.693179 4.984203 66.294881 4.490838 -7.659622 22.278297 17.927345 1.212243 2.248541 -1.575775 -0.047300 -0.074690 -0.105350 -0.197540 
